<?xml version="1.0" encoding="utf-8"?>
<!-- Generator: Adobe Illustrator 19.2.0, SVG Export Plug-In . SVG Version: 6.00 Build 0)  -->
<svg version="1.1" id="Layer_1" xmlns="http://www.w3.org/2000/svg" xmlns:xlink="http://www.w3.org/1999/xlink" x="0px" y="0px"
	 viewBox="0 0 1920 1080" style="enable-background:new 0 0 1920 1080;" xml:space="preserve">
<style type="text/css">
	.st0{fill:#754C24;}
	.st1{fill:#603813;}
	.st2{fill:#845732;}
	.st3{opacity:0.1;}
	.st4{fill:#CCCCCC;}
	.st5{fill:#E6E6E6;}
	.st6{fill:#FFFFFF;}
	.st7{fill:#333333;}
	.st8{fill:#C69C6D;}
	.st9{fill:#F2F2F2;}
	.st10{fill:#4D4D4D;}
	.st11{fill:#999999;}
	.st12{fill:none;stroke:#C7B299;stroke-width:4.723;stroke-miterlimit:10;}
	.st13{fill:#33B98C;}
	.st14{fill:#12A88B;}
	.st15{fill:#FBB03B;}
	.st16{fill:#F7931E;}
	.st17{fill:#F15A24;}
	.st18{fill:#C1272D;}
	.st19{fill:#135468;}
	.st20{fill:#EFBEA3;}
	.st21{fill:#FFD6B8;}
	.st22{fill:#E8D4BF;}
	.st23{fill:#998675;}
	.st24{fill:#C7B299;}
	.st25{fill:#897463;}
	.st26{fill:#8C6239;}
	.st27{fill:#E8B638;}
	.st28{fill:#F9C73D;}
	.st29{fill:none;stroke:#808080;stroke-width:2.5299;stroke-linecap:round;stroke-miterlimit:10;}
	.st30{fill:none;stroke:#F9C73D;stroke-width:0.7424;stroke-linecap:round;stroke-miterlimit:10;}
</style>
<rect class="st0" width="1920" height="1081"/>
<g>
	<rect y="148.8" class="st1" width="1920" height="11"/>
	<rect y="160.8" class="st2" width="1920" height="11"/>
</g>
<g>
	<rect y="336.3" class="st1" width="1920" height="11"/>
	<rect y="348.3" class="st2" width="1920" height="11"/>
</g>
<g>
	<rect y="523.9" class="st1" width="1920" height="11"/>
	<rect y="535.8" class="st2" width="1920" height="11"/>
</g>
<g>
	<rect y="711.4" class="st1" width="1920" height="11"/>
	<rect y="723.4" class="st2" width="1920" height="11"/>
</g>
<g>
	<rect y="898.9" class="st1" width="1920" height="11"/>
	<rect y="910.9" class="st2" width="1920" height="11"/>
</g>
<g>
	<path class="st3" d="M1053.7,400.1H159.2c-10,0-18.1-8.1-18.1-18.1V48.1c0-10,8.1-18.1,18.1-18.1h894.5c10,0,18.1,8.1,18.1,18.1
		V382C1071.7,392,1063.6,400.1,1053.7,400.1z"/>
	<path class="st4" d="M1053.7,370.1H159.2c-10,0-18.1-8.1-18.1-18.1V18.1c0-10,8.1-18.1,18.1-18.1h894.5c10,0,18.1,8.1,18.1,18.1
		V352C1071.7,362,1063.6,370.1,1053.7,370.1z"/>
	<path class="st5" d="M1053.7,349.2H159.2c-10,0-18.1-8.1-18.1-18.1V-2.8c0-10,8.1-18.1,18.1-18.1h894.5c10,0,18.1,8.1,18.1,18.1
		v333.9C1071.7,341.1,1063.6,349.2,1053.7,349.2z"/>
	<g>
		<path class="st4" d="M251.2,101h-79.4c-3.1,0-5.7-2.6-5.7-5.7v-21c0-3.1,2.6-5.7,5.7-5.7h79.4c3.1,0,5.7,2.6,5.7,5.7v21
			C256.9,98.5,254.4,101,251.2,101z"/>
		<path class="st4" d="M364.1,101h-79.4c-3.1,0-5.7-2.6-5.7-5.7v-21c0-3.1,2.6-5.7,5.7-5.7h79.4c3.1,0,5.7,2.6,5.7,5.7v21
			C369.8,98.5,367.2,101,364.1,101z"/>
		<path class="st4" d="M476.9,101h-79.4c-3.1,0-5.7-2.6-5.7-5.7v-21c0-3.1,2.6-5.7,5.7-5.7h79.4c3.1,0,5.7,2.6,5.7,5.7v21
			C482.6,98.5,480,101,476.9,101z"/>
		<path class="st4" d="M589.7,101h-79.4c-3.1,0-5.7-2.6-5.7-5.7v-21c0-3.1,2.6-5.7,5.7-5.7h79.4c3.1,0,5.7,2.6,5.7,5.7v21
			C595.4,98.5,592.8,101,589.7,101z"/>
		<path class="st4" d="M702.5,101h-79.4c-3.1,0-5.7-2.6-5.7-5.7v-21c0-3.1,2.6-5.7,5.7-5.7h79.4c3.1,0,5.7,2.6,5.7,5.7v21
			C708.2,98.5,705.6,101,702.5,101z"/>
		<path class="st4" d="M815.3,101H736c-3.1,0-5.7-2.6-5.7-5.7v-21c0-3.1,2.6-5.7,5.7-5.7h79.4c3.1,0,5.7,2.6,5.7,5.7v21
			C821,98.5,818.5,101,815.3,101z"/>
		<path class="st4" d="M928.1,101h-79.4c-3.1,0-5.7-2.6-5.7-5.7v-21c0-3.1,2.6-5.7,5.7-5.7h79.4c3.1,0,5.7,2.6,5.7,5.7v21
			C933.8,98.5,931.3,101,928.1,101z"/>
		<path class="st4" d="M1040.9,101h-79.4c-3.1,0-5.7-2.6-5.7-5.7v-21c0-3.1,2.6-5.7,5.7-5.7h79.4c3.1,0,5.7,2.6,5.7,5.7v21
			C1046.6,98.5,1044.1,101,1040.9,101z"/>
		<path class="st4" d="M288.8,177.5H174.5c-4.6,0-8.3-3.7-8.3-8.3V130c0-4.6,3.7-8.3,8.3-8.3h114.3c4.6,0,8.3,3.7,8.3,8.3v39.2
			C297.1,173.8,293.4,177.5,288.8,177.5z"/>
		<path class="st4" d="M386,177.5h-53.7c-3.2,0-5.8-2.6-5.8-5.8v-44c0-3.2,2.6-5.8,5.8-5.8H386c3.2,0,5.8,2.6,5.8,5.8v44
			C391.8,174.9,389.2,177.5,386,177.5z"/>
		<path class="st4" d="M471.5,177.5h-53.7c-3.2,0-5.8-2.6-5.8-5.8v-44c0-3.2,2.6-5.8,5.8-5.8h53.7c3.2,0,5.8,2.6,5.8,5.8v44
			C477.3,174.9,474.7,177.5,471.5,177.5z"/>
		<path class="st4" d="M557,177.5h-53.7c-3.2,0-5.8-2.6-5.8-5.8v-44c0-3.2,2.6-5.8,5.8-5.8H557c3.2,0,5.8,2.6,5.8,5.8v44
			C562.8,174.9,560.2,177.5,557,177.5z"/>
		<path class="st4" d="M642.5,177.5h-53.7c-3.2,0-5.8-2.6-5.8-5.8v-44c0-3.2,2.6-5.8,5.8-5.8h53.7c3.2,0,5.8,2.6,5.8,5.8v44
			C648.3,174.9,645.7,177.5,642.5,177.5z"/>
		<path class="st4" d="M728,177.5h-53.7c-3.2,0-5.8-2.6-5.8-5.8v-44c0-3.2,2.6-5.8,5.8-5.8H728c3.2,0,5.8,2.6,5.8,5.8v44
			C733.8,174.9,731.2,177.5,728,177.5z"/>
		<path class="st4" d="M813.5,177.5h-53.7c-3.2,0-5.8-2.6-5.8-5.8v-44c0-3.2,2.6-5.8,5.8-5.8h53.7c3.2,0,5.8,2.6,5.8,5.8v44
			C819.4,174.9,816.7,177.5,813.5,177.5z"/>
		<path class="st4" d="M899,177.5h-53.7c-3.2,0-5.8-2.6-5.8-5.8v-44c0-3.2,2.6-5.8,5.8-5.8H899c3.2,0,5.8,2.6,5.8,5.8v44
			C904.9,174.9,902.2,177.5,899,177.5z"/>
		<path class="st4" d="M1038.7,177.5H932.9c-4.4,0-8-3.6-8-8v-39.8c0-4.4,3.6-8,8-8h105.8c4.4,0,8,3.6,8,8v39.8
			C1046.6,173.9,1043.1,177.5,1038.7,177.5z"/>
		<path class="st4" d="M316,253.5H175.3c-5,0-9.1-4.1-9.1-9.1v-37.5c0-5,4.1-9.1,9.1-9.1H316c5,0,9.1,4.1,9.1,9.1v37.5
			C325.1,249.4,321,253.5,316,253.5z"/>
		<path class="st4" d="M414.7,253.5h-53.7c-3.2,0-5.8-2.6-5.8-5.8v-44c0-3.2,2.6-5.8,5.8-5.8h53.7c3.2,0,5.8,2.6,5.8,5.8v44
			C420.5,250.9,417.9,253.5,414.7,253.5z"/>
		<path class="st4" d="M225.8,331.1H172c-3.2,0-5.8-2.6-5.8-5.8v-44c0-3.2,2.6-5.8,5.8-5.8h53.7c3.2,0,5.8,2.6,5.8,5.8v44
			C231.6,328.5,229,331.1,225.8,331.1z"/>
		<path class="st4" d="M316.5,331.1h-53.7c-3.2,0-5.8-2.6-5.8-5.8v-44c0-3.2,2.6-5.8,5.8-5.8h53.7c3.2,0,5.8,2.6,5.8,5.8v44
			C322.4,328.5,319.8,331.1,316.5,331.1z"/>
		<path class="st4" d="M402.1,331.1h-53.7c-3.2,0-5.8-2.6-5.8-5.8v-44c0-3.2,2.6-5.8,5.8-5.8h53.7c3.2,0,5.8,2.6,5.8,5.8v44
			C407.9,328.5,405.3,331.1,402.1,331.1z"/>
		<path class="st4" d="M802.5,331.1h-53.7c-3.2,0-5.8-2.6-5.8-5.8v-44c0-3.2,2.6-5.8,5.8-5.8h53.7c3.2,0,5.8,2.6,5.8,5.8v44
			C808.4,328.5,805.7,331.1,802.5,331.1z"/>
		<path class="st4" d="M891.4,331.1h-53.7c-3.2,0-5.8-2.6-5.8-5.8v-44c0-3.2,2.6-5.8,5.8-5.8h53.7c3.2,0,5.8,2.6,5.8,5.8v44
			C897.3,328.5,894.7,331.1,891.4,331.1z"/>
		<path class="st4" d="M1038.5,331.1H928.9c-4.5,0-8.1-3.6-8.1-8.1v-39.5c0-4.5,3.6-8.1,8.1-8.1h109.7c4.5,0,8.1,3.6,8.1,8.1V323
			C1046.6,327.5,1043,331.1,1038.5,331.1z"/>
		<path class="st4" d="M705.4,331.1H440.4c-6.8,0-12.3-5.5-12.3-12.3v-31.1c0-6.8,5.5-12.3,12.3-12.3h265.1
			c6.8,0,12.3,5.5,12.3,12.3v31.1C717.7,325.6,712.2,331.1,705.4,331.1z"/>
		<path class="st4" d="M498.8,253.5H445c-3.2,0-5.8-2.6-5.8-5.8v-44c0-3.2,2.6-5.8,5.8-5.8h53.7c3.2,0,5.8,2.6,5.8,5.8v44
			C504.6,250.9,502,253.5,498.8,253.5z"/>
		<path class="st4" d="M582.9,253.5h-53.7c-3.2,0-5.8-2.6-5.8-5.8v-44c0-3.2,2.6-5.8,5.8-5.8h53.7c3.2,0,5.8,2.6,5.8,5.8v44
			C588.7,250.9,586.1,253.5,582.9,253.5z"/>
		<path class="st4" d="M667,253.5h-53.7c-3.2,0-5.8-2.6-5.8-5.8v-44c0-3.2,2.6-5.8,5.8-5.8H667c3.2,0,5.8,2.6,5.8,5.8v44
			C672.9,250.9,670.2,253.5,667,253.5z"/>
		<path class="st4" d="M751.1,253.5h-53.7c-3.2,0-5.8-2.6-5.8-5.8v-44c0-3.2,2.6-5.8,5.8-5.8h53.7c3.2,0,5.8,2.6,5.8,5.8v44
			C757,250.9,754.4,253.5,751.1,253.5z"/>
		<path class="st4" d="M835.2,253.5h-53.7c-3.2,0-5.8-2.6-5.8-5.8v-44c0-3.2,2.6-5.8,5.8-5.8h53.7c3.2,0,5.8,2.6,5.8,5.8v44
			C841.1,250.9,838.5,253.5,835.2,253.5z"/>
		<path class="st4" d="M919.4,253.5h-53.7c-3.2,0-5.8-2.6-5.8-5.8v-44c0-3.2,2.6-5.8,5.8-5.8h53.7c3.2,0,5.8,2.6,5.8,5.8v44
			C925.2,250.9,922.6,253.5,919.4,253.5z"/>
		<path class="st4" d="M1039.3,253.5h-88.1c-4,0-7.3-3.3-7.3-7.3v-41.1c0-4,3.3-7.3,7.3-7.3h88.1c4,0,7.3,3.3,7.3,7.3v41.1
			C1046.6,250.2,1043.4,253.5,1039.3,253.5z"/>
	</g>
	<g>
		<path class="st6" d="M251.2,94h-79.4c-3.1,0-5.7-2.6-5.7-5.7v-21c0-3.1,2.6-5.7,5.7-5.7h79.4c3.1,0,5.7,2.6,5.7,5.7v21
			C256.9,91.5,254.4,94,251.2,94z"/>
		<path class="st6" d="M364.1,94h-79.4c-3.1,0-5.7-2.6-5.7-5.7v-21c0-3.1,2.6-5.7,5.7-5.7h79.4c3.1,0,5.7,2.6,5.7,5.7v21
			C369.8,91.5,367.2,94,364.1,94z"/>
		<path class="st6" d="M476.9,94h-79.4c-3.1,0-5.7-2.6-5.7-5.7v-21c0-3.1,2.6-5.7,5.7-5.7h79.4c3.1,0,5.7,2.6,5.7,5.7v21
			C482.6,91.5,480,94,476.9,94z"/>
		<path class="st6" d="M589.7,94h-79.4c-3.1,0-5.7-2.6-5.7-5.7v-21c0-3.1,2.6-5.7,5.7-5.7h79.4c3.1,0,5.7,2.6,5.7,5.7v21
			C595.4,91.5,592.8,94,589.7,94z"/>
		<path class="st6" d="M702.5,94h-79.4c-3.1,0-5.7-2.6-5.7-5.7v-21c0-3.1,2.6-5.7,5.7-5.7h79.4c3.1,0,5.7,2.6,5.7,5.7v21
			C708.2,91.5,705.6,94,702.5,94z"/>
		<path class="st6" d="M815.3,94H736c-3.1,0-5.7-2.6-5.7-5.7v-21c0-3.1,2.6-5.7,5.7-5.7h79.4c3.1,0,5.7,2.6,5.7,5.7v21
			C821,91.5,818.5,94,815.3,94z"/>
		<path class="st6" d="M928.1,94h-79.4c-3.1,0-5.7-2.6-5.7-5.7v-21c0-3.1,2.6-5.7,5.7-5.7h79.4c3.1,0,5.7,2.6,5.7,5.7v21
			C933.8,91.5,931.3,94,928.1,94z"/>
		<path class="st6" d="M1040.9,94h-79.4c-3.1,0-5.7-2.6-5.7-5.7v-21c0-3.1,2.6-5.7,5.7-5.7h79.4c3.1,0,5.7,2.6,5.7,5.7v21
			C1046.6,91.5,1044.1,94,1040.9,94z"/>
		<path class="st6" d="M288.8,170.5H174.5c-4.6,0-8.3-3.7-8.3-8.3v-39.2c0-4.6,3.7-8.3,8.3-8.3h114.3c4.6,0,8.3,3.7,8.3,8.3v39.2
			C297.1,166.8,293.4,170.5,288.8,170.5z"/>
		<path class="st6" d="M386,170.5h-53.7c-3.2,0-5.8-2.6-5.8-5.8v-44c0-3.2,2.6-5.8,5.8-5.8H386c3.2,0,5.8,2.6,5.8,5.8v44
			C391.8,167.9,389.2,170.5,386,170.5z"/>
		<path class="st6" d="M471.5,170.5h-53.7c-3.2,0-5.8-2.6-5.8-5.8v-44c0-3.2,2.6-5.8,5.8-5.8h53.7c3.2,0,5.8,2.6,5.8,5.8v44
			C477.3,167.9,474.7,170.5,471.5,170.5z"/>
		<path class="st6" d="M557,170.5h-53.7c-3.2,0-5.8-2.6-5.8-5.8v-44c0-3.2,2.6-5.8,5.8-5.8H557c3.2,0,5.8,2.6,5.8,5.8v44
			C562.8,167.9,560.2,170.5,557,170.5z"/>
		<path class="st6" d="M642.5,170.5h-53.7c-3.2,0-5.8-2.6-5.8-5.8v-44c0-3.2,2.6-5.8,5.8-5.8h53.7c3.2,0,5.8,2.6,5.8,5.8v44
			C648.3,167.9,645.7,170.5,642.5,170.5z"/>
		<path class="st6" d="M728,170.5h-53.7c-3.2,0-5.8-2.6-5.8-5.8v-44c0-3.2,2.6-5.8,5.8-5.8H728c3.2,0,5.8,2.6,5.8,5.8v44
			C733.8,167.9,731.2,170.5,728,170.5z"/>
		<path class="st6" d="M813.5,170.5h-53.7c-3.2,0-5.8-2.6-5.8-5.8v-44c0-3.2,2.6-5.8,5.8-5.8h53.7c3.2,0,5.8,2.6,5.8,5.8v44
			C819.4,167.9,816.7,170.5,813.5,170.5z"/>
		<path class="st6" d="M899,170.5h-53.7c-3.2,0-5.8-2.6-5.8-5.8v-44c0-3.2,2.6-5.8,5.8-5.8H899c3.2,0,5.8,2.6,5.8,5.8v44
			C904.9,167.9,902.2,170.5,899,170.5z"/>
		<path class="st6" d="M1038.7,170.5H932.9c-4.4,0-8-3.6-8-8v-39.8c0-4.4,3.6-8,8-8h105.8c4.4,0,8,3.6,8,8v39.8
			C1046.6,167,1043.1,170.5,1038.7,170.5z"/>
		<path class="st6" d="M316,246.5H175.3c-5,0-9.1-4.1-9.1-9.1v-37.5c0-5,4.1-9.1,9.1-9.1H316c5,0,9.1,4.1,9.1,9.1v37.5
			C325.1,242.5,321,246.5,316,246.5z"/>
		<path class="st6" d="M414.7,246.5h-53.7c-3.2,0-5.8-2.6-5.8-5.8v-44c0-3.2,2.6-5.8,5.8-5.8h53.7c3.2,0,5.8,2.6,5.8,5.8v44
			C420.5,243.9,417.9,246.5,414.7,246.5z"/>
		<path class="st6" d="M225.8,324.2H172c-3.2,0-5.8-2.6-5.8-5.8v-44c0-3.2,2.6-5.8,5.8-5.8h53.7c3.2,0,5.8,2.6,5.8,5.8v44
			C231.6,321.6,229,324.2,225.8,324.2z"/>
		<path class="st6" d="M316.5,324.2h-53.7c-3.2,0-5.8-2.6-5.8-5.8v-44c0-3.2,2.6-5.8,5.8-5.8h53.7c3.2,0,5.8,2.6,5.8,5.8v44
			C322.4,321.6,319.8,324.2,316.5,324.2z"/>
		<path class="st6" d="M402.1,324.2h-53.7c-3.2,0-5.8-2.6-5.8-5.8v-44c0-3.2,2.6-5.8,5.8-5.8h53.7c3.2,0,5.8,2.6,5.8,5.8v44
			C407.9,321.6,405.3,324.2,402.1,324.2z"/>
		<path class="st6" d="M802.5,324.2h-53.7c-3.2,0-5.8-2.6-5.8-5.8v-44c0-3.2,2.6-5.8,5.8-5.8h53.7c3.2,0,5.8,2.6,5.8,5.8v44
			C808.4,321.6,805.7,324.2,802.5,324.2z"/>
		<path class="st6" d="M891.4,324.2h-53.7c-3.2,0-5.8-2.6-5.8-5.8v-44c0-3.2,2.6-5.8,5.8-5.8h53.7c3.2,0,5.8,2.6,5.8,5.8v44
			C897.3,321.6,894.7,324.2,891.4,324.2z"/>
		<path class="st6" d="M1038.5,324.2H928.9c-4.5,0-8.1-3.6-8.1-8.1v-39.5c0-4.5,3.6-8.1,8.1-8.1h109.7c4.5,0,8.1,3.6,8.1,8.1v39.5
			C1046.6,320.6,1043,324.2,1038.5,324.2z"/>
		<path class="st6" d="M705.4,324.2H440.4c-6.8,0-12.3-5.5-12.3-12.3v-31.1c0-6.8,5.5-12.3,12.3-12.3h265.1
			c6.8,0,12.3,5.5,12.3,12.3v31.1C717.7,318.7,712.2,324.2,705.4,324.2z"/>
		<path class="st6" d="M498.8,246.5H445c-3.2,0-5.8-2.6-5.8-5.8v-44c0-3.2,2.6-5.8,5.8-5.8h53.7c3.2,0,5.8,2.6,5.8,5.8v44
			C504.6,243.9,502,246.5,498.8,246.5z"/>
		<path class="st6" d="M582.9,246.5h-53.7c-3.2,0-5.8-2.6-5.8-5.8v-44c0-3.2,2.6-5.8,5.8-5.8h53.7c3.2,0,5.8,2.6,5.8,5.8v44
			C588.7,243.9,586.1,246.5,582.9,246.5z"/>
		<path class="st6" d="M667,246.5h-53.7c-3.2,0-5.8-2.6-5.8-5.8v-44c0-3.2,2.6-5.8,5.8-5.8H667c3.2,0,5.8,2.6,5.8,5.8v44
			C672.9,243.9,670.2,246.5,667,246.5z"/>
		<path class="st6" d="M751.1,246.5h-53.7c-3.2,0-5.8-2.6-5.8-5.8v-44c0-3.2,2.6-5.8,5.8-5.8h53.7c3.2,0,5.8,2.6,5.8,5.8v44
			C757,243.9,754.4,246.5,751.1,246.5z"/>
		<path class="st6" d="M835.2,246.5h-53.7c-3.2,0-5.8-2.6-5.8-5.8v-44c0-3.2,2.6-5.8,5.8-5.8h53.7c3.2,0,5.8,2.6,5.8,5.8v44
			C841.1,243.9,838.5,246.5,835.2,246.5z"/>
		<path class="st6" d="M919.4,246.5h-53.7c-3.2,0-5.8-2.6-5.8-5.8v-44c0-3.2,2.6-5.8,5.8-5.8h53.7c3.2,0,5.8,2.6,5.8,5.8v44
			C925.2,243.9,922.6,246.5,919.4,246.5z"/>
		<path class="st6" d="M1039.3,246.5h-88.1c-4,0-7.3-3.3-7.3-7.3v-41.1c0-4,3.3-7.3,7.3-7.3h88.1c4,0,7.3,3.3,7.3,7.3v41.1
			C1046.6,243.3,1043.4,246.5,1039.3,246.5z"/>
	</g>
</g>
<g>
	<path class="st3" d="M466.6,955H298.1c-14.2,0-25.7-11.5-25.7-25.7V554.4c0-14.2,11.5-25.7,25.7-25.7h168.5
		c14.2,0,25.7,11.5,25.7,25.7v374.9C492.3,943.5,480.8,955,466.6,955z"/>
	<path class="st5" d="M466.6,935H298.1c-14.2,0-25.7-11.5-25.7-25.7V534.4c0-14.2,11.5-25.7,25.7-25.7h168.5
		c14.2,0,25.7,11.5,25.7,25.7v374.9C492.3,923.5,480.8,935,466.6,935z"/>
	<path class="st6" d="M464,921H300.6c-13.6,0-24.6-11-24.6-24.6V531c0-13.6,11-24.6,24.6-24.6H464c13.6,0,24.6,11,24.6,24.6v365.4
		C488.6,910,477.6,921,464,921z"/>
	<rect x="285.5" y="545.7" class="st7" width="193.6" height="335.9"/>
	<path class="st4" d="M396.4,528.9h-23.1c-0.8,0-1.4-0.6-1.4-1.4l0,0c0-0.8,0.6-1.4,1.4-1.4h23.1c0.8,0,1.4,0.6,1.4,1.4l0,0
		C397.8,528.3,397.2,528.9,396.4,528.9z"/>
	<circle class="st4" cx="357.4" cy="527.5" r="3.1"/>
	<circle class="st4" cx="384.8" cy="516.9" r="1.4"/>
	<circle class="st4" cx="382.3" cy="901.8" r="12.6"/>
</g>
<g>
	<path class="st3" d="M1149.4,997.5l-380.8,2c-13.1,0.1-23.8-10.5-23.8-23.6l-2.4-463.6c-0.1-13.1,10.5-23.8,23.6-23.8l380.8-2
		c13.1-0.1,23.8,10.5,23.8,23.6l2.4,463.6C1173,986.8,1162.5,997.5,1149.4,997.5z"/>
	<path class="st8" d="M1149.3,978.6l-380.8,2c-13.1,0.1-23.8-10.5-23.8-23.6l-2.4-463.6c-0.1-13.1,10.5-23.8,23.6-23.8l380.8-2
		c13.1-0.1,23.8,10.5,23.8,23.6l2.4,463.6C1172.9,967.9,1162.4,978.6,1149.3,978.6z"/>
	<path class="st9" d="M1139.4,937.9l-363,1.9c-4.6,0-8.4-3.7-8.4-8.3l-2.4-466.9c0-4.6,3.7-8.4,8.3-8.4l363-1.9
		c4.6,0,8.4,3.7,8.4,8.3l2.4,466.9C1147.8,934.1,1144.1,937.9,1139.4,937.9z"/>
	<g>
		
			<ellipse transform="matrix(1 -5.246035e-03 5.246035e-03 1 -2.4679 4.2172)" class="st10" cx="802.6" cy="472.5" rx="10.1" ry="10.1"/>
		<path class="st11" d="M802,475.1L802,475.1c-2.6,0-4.8-2.1-4.8-4.7l-0.1-26.8c0-2.6,2.1-4.8,4.7-4.8l0,0c2.6,0,4.8,2.1,4.8,4.7
			l0.1,26.8C806.7,472.9,804.6,475.1,802,475.1z"/>
		
			<ellipse transform="matrix(1 -5.246035e-03 5.246035e-03 1 -2.4663 4.416)" class="st10" cx="840.5" cy="472.3" rx="10.1" ry="10.1"/>
		<path class="st11" d="M840,474.9L840,474.9c-2.6,0-4.8-2.1-4.8-4.7l-0.1-26.8c0-2.6,2.1-4.8,4.7-4.8l0,0c2.6,0,4.8,2.1,4.8,4.7
			l0.1,26.8C844.7,472.7,842.6,474.9,840,474.9z"/>
		
			<ellipse transform="matrix(1 -5.246035e-03 5.246035e-03 1 -2.4647 4.6148)" class="st10" cx="878.4" cy="472.1" rx="10.1" ry="10.1"/>
		<path class="st11" d="M878,474.7L878,474.7c-2.6,0-4.8-2.1-4.8-4.7l-0.1-26.8c0-2.6,2.1-4.8,4.7-4.8l0,0c2.6,0,4.8,2.1,4.8,4.7
			l0.1,26.8C882.8,472.5,880.7,474.7,878,474.7z"/>
		
			<ellipse transform="matrix(1 -5.246035e-03 5.246035e-03 1 -2.4632 4.8137)" class="st10" cx="916.3" cy="471.9" rx="10.1" ry="10.1"/>
		<path class="st11" d="M916.1,474.5L916.1,474.5c-2.6,0-4.8-2.1-4.8-4.7l-0.1-26.8c0-2.6,2.1-4.8,4.7-4.8l0,0
			c2.6,0,4.8,2.1,4.8,4.7l0.1,26.8C920.8,472.3,918.7,474.5,916.1,474.5z"/>
		
			<ellipse transform="matrix(1 -5.246035e-03 5.246035e-03 1 -2.4616 5.0125)" class="st10" cx="954.2" cy="471.7" rx="10.1" ry="10.1"/>
		<path class="st11" d="M954.1,474.3L954.1,474.3c-2.6,0-4.8-2.1-4.8-4.7l-0.1-26.8c0-2.6,2.1-4.8,4.7-4.8h0c2.6,0,4.8,2.1,4.8,4.7
			l0.1,26.8C958.9,472.1,956.7,474.3,954.1,474.3z"/>
		
			<ellipse transform="matrix(1 -5.246035e-03 5.246035e-03 1 -2.46 5.2113)" class="st10" cx="992.1" cy="471.5" rx="10.1" ry="10.1"/>
		<path class="st11" d="M992.2,474.1L992.2,474.1c-2.6,0-4.8-2.1-4.8-4.7l-0.1-26.8c0-2.6,2.1-4.8,4.7-4.8l0,0
			c2.6,0,4.8,2.1,4.8,4.7l0.1,26.8C996.9,471.9,994.8,474.1,992.2,474.1z"/>
	</g>
	
		<ellipse transform="matrix(1 -5.246035e-03 5.246035e-03 1 -2.4583 5.4307)" class="st10" cx="1034" cy="471.3" rx="10.1" ry="10.1"/>
	<path class="st11" d="M1033.3,473.9L1033.3,473.9c-2.6,0-4.8-2.1-4.8-4.7l-0.1-26.8c0-2.6,2.1-4.8,4.7-4.8l0,0
		c2.6,0,4.8,2.1,4.8,4.7l0.1,26.8C1038,471.7,1035.9,473.8,1033.3,473.9z"/>
	
		<ellipse transform="matrix(1 -5.246035e-03 5.246035e-03 1 -2.4568 5.6295)" class="st10" cx="1071.9" cy="471.1" rx="10.1" ry="10.1"/>
	<path class="st11" d="M1071.3,473.7L1071.3,473.7c-2.6,0-4.8-2.1-4.8-4.7l-0.1-26.8c0-2.6,2.1-4.8,4.7-4.8l0,0
		c2.6,0,4.8,2.1,4.8,4.7l0.1,26.8C1076.1,471.5,1074,473.6,1071.3,473.7z"/>
	
		<ellipse transform="matrix(1 -5.246035e-03 5.246035e-03 1 -2.4552 5.8284)" class="st10" cx="1109.8" cy="470.9" rx="10.1" ry="10.1"/>
	<path class="st11" d="M1109.4,473.5L1109.4,473.5c-2.6,0-4.8-2.1-4.8-4.7l-0.1-26.8c0-2.6,2.1-4.8,4.7-4.8l0,0
		c2.6,0,4.8,2.1,4.8,4.7l0.1,26.8C1114.1,471.3,1112,473.4,1109.4,473.5z"/>
	
		<rect x="816.9" y="534.3" transform="matrix(1 -5.246035e-03 5.246035e-03 1 -2.8125 4.79)" class="st4" width="189.5" height="8.5"/>
	
		<rect x="817.1" y="565.8" transform="matrix(1 -5.246035e-03 5.246035e-03 1 -2.9781 4.7913)" class="st4" width="189.5" height="8.5"/>
	
		<rect x="1038.5" y="530.7" transform="matrix(1 -5.246035e-03 5.246035e-03 1 -2.8845 5.5707)" class="st12" width="43.9" height="43.9"/>
	
		<rect x="817.4" y="622" transform="matrix(1 -5.246035e-03 5.246035e-03 1 -3.2728 4.7936)" class="st4" width="189.5" height="8.5"/>
	
		<rect x="817.5" y="653.6" transform="matrix(1 -5.246035e-03 5.246035e-03 1 -3.4384 4.7949)" class="st4" width="189.5" height="8.5"/>
	
		<rect x="1038.9" y="618.4" transform="matrix(1 -5.246035e-03 5.246035e-03 1 -3.3448 5.5743)" class="st12" width="43.9" height="43.9"/>
	
		<rect x="817.8" y="709.8" transform="matrix(1 -5.246035e-03 5.246035e-03 1 -3.7331 4.7973)" class="st4" width="189.5" height="8.5"/>
	
		<rect x="818" y="741.3" transform="matrix(1 -5.246035e-03 5.246035e-03 1 -3.8987 4.7986)" class="st4" width="189.5" height="8.5"/>
	
		<rect x="1039.4" y="706.1" transform="matrix(1 -5.246035e-03 5.246035e-03 1 -3.8051 5.5779)" class="st12" width="43.9" height="43.9"/>
	
		<rect x="818.3" y="797.5" transform="matrix(1 -5.246035e-03 5.246035e-03 1 -4.1934 4.8009)" class="st4" width="189.5" height="8.5"/>
	
		<rect x="818.4" y="829" transform="matrix(1 -5.246035e-03 5.246035e-03 1 -4.3589 4.8022)" class="st4" width="189.5" height="8.5"/>
	
		<rect x="1039.8" y="793.9" transform="matrix(1 -5.246035e-03 5.246035e-03 1 -4.2654 5.5815)" class="st12" width="43.9" height="43.9"/>
	<polygon class="st13" points="1063.1,550.8 1090.3,523.3 1099.1,531.9 1072.1,559.1 1063.2,568.2 1054.2,559.2 1045,550.2 
		1053.7,541.5 	"/>
	<polygon class="st13" points="1063.5,634.9 1090.8,607.3 1099.5,616 1072.6,643.2 1063.6,652.2 1054.6,643.3 1045.5,634.3 
		1054.1,625.6 	"/>
</g>
<g>
	<path class="st3" d="M1753.5,882.5h-463.8V232.3h463.8c15.9,0,28.7,12.9,28.7,28.7v592.7C1782.2,869.7,1769.3,882.5,1753.5,882.5z"
		/>
	<path class="st14" d="M1753.5,858.5h-463.8V208.3h463.8c15.9,0,28.7,12.9,28.7,28.7v592.7C1782.2,845.6,1769.3,858.5,1753.5,858.5z
		"/>
	<path class="st6" d="M1753.5,838.5h-463.8V188.3h463.8c15.9,0,28.7,12.9,28.7,28.7v592.7C1782.2,825.6,1769.3,838.5,1753.5,838.5z"
		/>
	<path class="st13" d="M1753.5,808.5h-463.8V158.3h463.8c15.9,0,28.7,12.9,28.7,28.7v592.7C1782.2,795.6,1769.3,808.5,1753.5,808.5z
		"/>
	<path class="st9" d="M1692,461.8h-242.5c-8.6,0-15.6-7-15.6-15.6V303.8c0-8.6,7-15.6,15.6-15.6H1692c8.6,0,15.6,7,15.6,15.6v142.4
		C1707.6,454.8,1700.6,461.8,1692,461.8z"/>
	<path class="st15" d="M1804.8,312.7h-22.6V204.9h22.6c7.7,0,14,6.3,14,14v79.8C1818.9,306.4,1812.6,312.7,1804.8,312.7z"/>
	<path class="st16" d="M1804.8,433.7h-22.6V325.9h22.6c7.7,0,14,6.3,14,14v79.8C1818.9,427.5,1812.6,433.7,1804.8,433.7z"/>
	<path class="st17" d="M1804.8,556.7h-22.6V448.9h22.6c7.7,0,14,6.3,14,14v79.8C1818.9,550.4,1812.6,556.7,1804.8,556.7z"/>
	<path class="st18" d="M1804.8,681.4h-22.6V573.6h22.6c7.7,0,14,6.3,14,14v79.8C1818.9,675.2,1812.6,681.4,1804.8,681.4z"/>
	<rect x="1289.7" y="158.3" class="st19" width="67.6" height="650.2"/>
	<rect x="1482.1" y="330.8" class="st19" width="178.7" height="14.9"/>
	<rect x="1482.1" y="364.9" class="st19" width="178.7" height="14.9"/>
	<rect x="1482.1" y="399.1" class="st19" width="178.7" height="14.9"/>
	<rect x="1289.7" y="808.5" class="st19" width="40.8" height="30"/>
	<rect x="1289.7" y="838.5" class="st19" width="67.6" height="20"/>
</g>
<g>
	<path class="st3" d="M1220.5,365.8h-45.2c-5.7,0-10.3-4.6-10.3-10.3V217.4c0-5.7,4.6-10.3,10.3-10.3h45.2c5.7,0,10.3,4.6,10.3,10.3
		v138.1C1230.8,361.2,1226.2,365.8,1220.5,365.8z"/>
	<path class="st5" d="M1220.5,345.8h-45.2c-5.7,0-10.3-4.6-10.3-10.3V197.4c0-5.7,4.6-10.3,10.3-10.3h45.2c5.7,0,10.3,4.6,10.3,10.3
		v138.1C1230.8,341.2,1226.2,345.8,1220.5,345.8z"/>
	<path class="st6" d="M1220.5,329.8h-45.2c-5.7,0-10.3-4.6-10.3-10.3V181.4c0-5.7,4.6-10.3,10.3-10.3h45.2c5.7,0,10.3,4.6,10.3,10.3
		v138.1C1230.8,325.2,1226.2,329.8,1220.5,329.8z"/>
	<path class="st18" d="M1230.8,250.4H1165v-69c0-5.7,4.6-10.3,10.3-10.3h45.2c5.7,0,10.3,4.6,10.3,10.3V250.4z"/>
</g>
<g>
	<g class="st3">
		<path d="M1506.3,536.3c-6.2-12.6-21.9-17.6-35.8-10.8l22.3,45.6C1506.7,564.3,1512.5,548.8,1506.3,536.3z"/>
		<path d="M2058.9,1062.1l9.4-15l-326.9-205.4l4.2-6.7c3.3-5.2,1.7-12-3.5-15.3l-64.3-40.4c-5.2-3.3-12-1.7-15.3,3.5l-4.2,6.7l0,0
			l-14.4,23l-125-78.5l-21.8-14.6l-38.4-30c0,0-24-41.7-46-79l61.2-29.9l0,0l19-9.3l-22.3-45.6l-84,41.1c-3.5-5.7-6.3-10.1-7.9-12.3
			c-11.3-16.1-35.9-14.9-68.8-14.8c-37,0.1-64.4-1.8-85.5,8.7c-30.5,15.2-109.7,92.2-120.2,102c-20.7,19.2,1.3,44.6,28.5,40.6
			l-0.7,0.3l-26.1,30.5l0,0l-15.5,18.1h0l0,0l63.9-3.1l-7.4-15.2l0,0l0,0l0,0v0l0,0l7.5,15.3l9.7-4.7c9.7,4.5,21.5,2,28.3-6.8
			l0.6-0.7c-1.6,13.5,6.4,26.4,19.3,30.8l3.6,1.2c12.1,4.1,25.4-1.2,31.3-12.5c-1.2,13.2,6.7,25.6,19.3,29.9
			c11.6,4,24.5-0.1,31.7-10l4-5.5c0,0,9.9,47.4,61.3,61.3c47.4,12.8,75.1,18.1,79.1,18.8l132.7,83.4l-17,27.1
			c-3.3,5.2-1.7,12,3.5,15.3l64.3,40.4c5.2,3.3,12,1.7,15.3-3.5l2.5-4l15.6,9.8l0,0l311.3,195.5l10.6-16.8l0,0l15.3-24.4l0,0
			l6.8-10.8l9.1-14.4l0,0l15.3-24.4l0,0l26.1-41.5l0,0L2058.9,1062.1L2058.9,1062.1z M1139.4,706.1L1139.4,706.1L1139.4,706.1
			L1139.4,706.1L1139.4,706.1z"/>
	</g>
	<path class="st20" d="M1324,560.9c0,0-78.9-15.7-120.4,23.4c-41.5,39.1-62.8,60-62.8,60l14.3,29.3l0,0c-8.1,10.1-6.5,24.9,3.7,33
		l0.6,0.5c10.2,8.1,25,6.3,33-4l0.6-0.7v0c-1.6,13.5,6.4,26.4,19.3,30.8l3.6,1.2c12.1,4.1,25.4-1.2,31.3-12.5l0,0l0,0
		c-1.2,13.2,6.7,25.6,19.3,29.9v0c11.6,4,24.5-0.1,31.7-10l4-5.5l78-71.8L1324,560.9z"/>
	<path class="st21" d="M1497,697.4l-38.4-30c0,0-68.7-119.1-80-135.1c-11.3-16.1-35.9-14.9-68.8-14.8c-37,0.1-64.4-1.8-85.5,8.7
		c-30.5,15.2-109.7,92.2-120.2,102c-24.7,22.9,11.3,54.6,44.4,34.8c28.6-17.1,98.3-82.1,98.3-82.1l66-0.7c0,0,48.5,59.5,32.6,81.2
		s-22.6,19.4-22.6,19.4l-20.9,55.5c0,0,9.9,47.4,61.3,61.3c51.4,13.9,79.6,18.9,79.6,18.9l76.1-104.3L1497,697.4z"/>
	<g>
		
			<rect x="1287" y="420.6" transform="matrix(-0.4392 -0.8984 0.8984 -0.4392 1341.6171 2055.6357)" class="st15" width="50.8" height="376.9"/>
		<path class="st18" d="M1506.3,514.3c-6.2-12.6-21.9-17.6-35.8-10.8l22.3,45.6C1506.7,542.3,1512.5,526.8,1506.3,514.3z"/>
		
			<rect x="1446.8" y="520.4" transform="matrix(-0.4392 -0.8984 0.8984 -0.4392 1641.7235 2086.7759)" class="st10" width="50.8" height="21.2"/>
		<polygon class="st22" points="1132,669 1154.2,714.5 1090.3,717.5 		"/>
		<polygon class="st7" points="1105.8,699.4 1090.3,717.5 1114.1,716.4 		"/>
		
			<rect x="1294.4" y="435.8" transform="matrix(-0.4392 -0.8984 0.8984 -0.4392 1323.7697 2053.6282)" class="st16" width="16.9" height="355.7"/>
		<polygon class="st15" points="1154.2,714.5 1142,711.1 1146.8,699.3 		"/>
		<polygon class="st16" points="1146.8,699.3 1134.6,695.9 1139.4,684.1 		"/>
		<polygon class="st15" points="1139.4,684.1 1127.2,680.7 1132,669 		"/>
	</g>
	<path class="st21" d="M1382.5,760.1l-153.7-52.8c-16-5.5-24.5-22.9-19-38.8v0c5.5-16,22.9-24.5,38.8-19l153.7,52.8L1382.5,760.1z"
		/>
	
		<rect x="1683.3" y="611.1" transform="matrix(0.5319 -0.8468 0.8468 0.5319 28.9075 1916.2861)" class="st21" width="129" height="641.9"/>
	<g>
		
			<rect x="1722.8" y="731.9" transform="matrix(0.5319 -0.8468 0.8468 0.5319 24.598 1992.4344)" class="st23" width="183.4" height="484.2"/>
		<path class="st24" d="M1745.6,813l-104.3,166c-3.3,5.2-10.1,6.8-15.3,3.5l-64.3-40.4c-5.2-3.3-6.8-10.1-3.5-15.3l104.3-166
			c3.3-5.2,10.1-6.8,15.3-3.5l64.3,40.4C1747.3,801,1748.8,807.8,1745.6,813z"/>
		
			<rect x="1608.7" y="893.1" transform="matrix(0.5319 -0.8468 0.8468 0.5319 31.8649 1862.2668)" class="st25" width="183.4" height="18.5"/>
		
			<rect x="1811.1" y="855.7" transform="matrix(0.5319 -0.8468 0.8468 0.5319 -33.5428 2036.7291)" class="st25" width="28.8" height="386.1"/>
		
			<rect x="1842.3" y="806.1" transform="matrix(0.5319 -0.8468 0.8468 0.5319 23.0093 2039.8923)" class="st25" width="28.8" height="386.1"/>
		
			<rect x="1873.4" y="756.5" transform="matrix(0.5319 -0.8468 0.8468 0.5319 79.5613 2043.0557)" class="st25" width="28.8" height="386.1"/>
	</g>
</g>
<g>
	<path class="st3" d="M881.3,696.8c-9.1-9.7-24.3-10.1-34-1l-37.1,45.6l-22,17.8l30.1-95.4l43.5-141.2c3.6-11.6-2.9-23.9-14.5-27.5
		v0c-11.6-3.6-23.9,2.9-27.5,14.5l-43.5,140.9c-2.4-0.6-4.9-1.2-7.4-1.8l10.3-44.4l25.1-61.5c3.6-11.6-2.9-23.9-14.5-27.5v0
		c-11.6-3.6-23.9,2.9-27.5,14.5l-24.5,59.7l-12.3,52.9c-2.7-0.1-5.4-0.1-8.1,0l8.6-43.9l26.5-54.7c3.6-11.6-2.9-23.9-14.5-27.5
		c-11.6-3.6-23.9,2.9-27.5,14.5l-27.2,56.9L671,651.2c-1.5,0.5-2.9,0.9-4.4,1.4l2.3-36.3l16.3-58.3c1.8-12-4.7-22.9-14.4-24.4
		c-9.8-1.5-19.1,7.1-20.9,19.1l-16.6,60.5l-3.3,54.7l0,0c0,0-0.4,6.3-6.3,57.9c-5.9,51.6,24.8,79.9,24.8,79.9l-8.3,36.1l-14.4,51
		c-3.1-0.2-6,1.7-6.9,4.8l-9.6,34c-0.9,3.1,0.6,6.3,3.4,7.7l-10.4,37.1l-27.8-7.8c-5.3-1.5-10.9,1.6-12.4,6.9l-18.6,66.1
		c-1.5,5.3,1.6,10.9,6.9,12.4l4.1,1.2l-4.5,16.1l0,0l-90.1,320l17.3,4.9l0,0l25,7.1l0,0l25.9,7.3l0,0l7.8,2.2l43.1,12.1l0,0l25,7.1
		l0,0l15.4,4.3l94.7-336.1l6.9,1.9c5.3,1.5,10.9-1.6,12.4-6.9l18.6-66.1c1.5-5.3-1.6-10.9-6.9-12.4l-6.9-1.9l0,0l-23.6-6.7L725,971
		c3.1,0.2,6-1.7,6.9-4.8l9.6-34c0.9-3.1-0.6-6.3-3.3-7.7l15.1-53.7l-0.3-0.1l9.1-28.9l0.2,0.2l80-65.3l38-45.9
		C889.9,721.6,890.4,706.4,881.3,696.8z"/>
	<path class="st21" d="M707.3,806.9l33,35l80-65.3l38-45.9c9.7-9.1,10.1-24.3,1-34h0c-9.1-9.7-24.3-10.1-34-1l-37.1,45.6
		L707.3,806.9z"/>
	<path class="st21" d="M754.3,650.8l42,12.9l43.5-141.2c3.6-11.6-2.9-23.9-14.5-27.5l0,0c-11.6-3.6-23.9,2.9-27.5,14.5L754.3,650.8z
		"/>
	<path class="st21" d="M696.8,671.1l42,12.9l18.4-79.7l25.1-61.5c3.6-11.6-2.9-23.9-14.5-27.5h0c-11.6-3.6-23.9,2.9-27.5,14.5
		l-24.5,59.7L696.8,671.1z"/>
	<path class="st21" d="M645,672.1l42,12.9l17-86.4l26.5-54.7c3.6-11.6-2.9-23.9-14.5-27.5l0,0c-11.6-3.6-23.9,2.9-27.5,14.5
		l-27.2,56.9L645,672.1z"/>
	<path class="st21" d="M606,698.8l35.4,5.3l5.5-87.8l16.3-58.3c1.8-12-4.7-22.9-14.4-24.4h0c-9.8-1.5-19.1,7.1-20.9,19.1l-16.6,60.5
		L606,698.8z"/>
	<path class="st21" d="M796.3,663.8l-65.9,208.9L618,842.8l8.5-37.1c0,0-30.7-28.3-24.8-79.9c5.9-51.6,6.3-57.9,6.3-57.9
		s52.5-28.1,97.7-25.3C750.7,645.4,796.3,663.8,796.3,663.8z"/>
	
		<rect x="538.1" y="844.1" transform="matrix(0.9626 0.2711 -0.2711 0.9626 329.8352 -119.201)" class="st21" width="116.7" height="580.5"/>
	<g>
		
			<rect x="494.1" y="984" transform="matrix(0.9626 0.2711 -0.2711 0.9626 347.7095 -111.3806)" class="st23" width="165.9" height="438"/>
		<path class="st24" d="M699.1,1102.1L528.4,1054c-5.3-1.5-8.4-7.1-6.9-12.4l18.6-66.1c1.5-5.3,7.1-8.4,12.4-6.9l170.7,48.1
			c5.3,1.5,8.4,7.1,6.9,12.4l-18.6,66.1C710,1100.4,704.4,1103.6,699.1,1102.1z"/>
		<path class="st26" d="M701.7,970.7l-109.8-30.9c-3.5-1-5.6-4.6-4.6-8.2l9.6-34c1-3.5,4.6-5.6,8.2-4.6l109.8,30.9
			c3.5,1,5.6,4.6,4.6,8.2l-9.6,34C708.9,969.7,705.2,971.7,701.7,970.7z"/>
		<path class="st27" d="M676.5,971.6l-62.8-17.7c-2.1-0.6-3.3-2.8-2.7-4.9l0.1-0.2c0.6-2.1,2.8-3.3,4.9-2.7l62.8,17.7
			c2.1,0.6,3.3,2.8,2.7,4.9l-0.1,0.2C680.8,971,678.7,972.2,676.5,971.6z"/>
		<path class="st27" d="M691.8,917.4L629,899.8c-2.1-0.6-3.3-2.8-2.7-4.9l0.1-0.2c0.6-2.1,2.8-3.3,4.9-2.7l62.8,17.7
			c2.1,0.6,3.3,2.8,2.7,4.9l-0.1,0.2C696.1,916.8,693.9,918,691.8,917.4z"/>
		
			<ellipse transform="matrix(0.2711 -0.9626 0.9626 0.2711 -420.2736 1309.2948)" class="st28" cx="654.3" cy="932.1" rx="38.6" ry="38.6"/>
		
			<ellipse transform="matrix(0.2711 -0.9626 0.9626 0.2711 -420.2736 1309.2948)" class="st6" cx="654.3" cy="932.1" rx="31.3" ry="31.3"/>
		<polyline class="st29" points="660.1,908 653.4,932 671.6,937.1 		"/>
		<line class="st30" x1="630.6" y1="933.9" x2="653.6" y2="931.9"/>
		
			<ellipse transform="matrix(0.2711 -0.9626 0.9626 0.2711 -420.6133 1308.4282)" class="st28" cx="653.6" cy="931.9" rx="4.2" ry="4.2"/>
		
			<rect x="527.1" y="1077.3" transform="matrix(0.9626 0.2711 -0.2711 0.9626 317.1463 -124.7249)" class="st25" width="165.9" height="16.7"/>
		
			<rect x="502" y="1057" transform="matrix(0.9626 0.2711 -0.2711 0.9626 353.1481 -93.4919)" class="st25" width="26" height="349.2"/>
		
			<rect x="553" y="1071.4" transform="matrix(0.9626 0.2711 -0.2711 0.9626 358.9471 -106.7697)" class="st25" width="26" height="349.2"/>
		
			<rect x="603.9" y="1085.7" transform="matrix(0.9626 0.2711 -0.2711 0.9626 364.7461 -120.0475)" class="st25" width="26" height="349.2"/>
	</g>
</g>
</svg>
